# Blender 4.2.2 LTS
# www.blender.org
mtllib outer_light.mtl
o outer_light
v -45.632168 27.693058 11.233352
v -49.821846 9.833081 13.200632
v -41.980030 9.833083 29.901188
v -37.790352 27.693062 27.933903
v -45.911480 26.502388 11.364504
v -49.542534 11.023743 13.069480
v -41.700718 11.023751 29.770035
v -38.069664 26.502401 28.065056
v -49.299057 9.833082 14.314003
v -42.502815 9.833082 28.787819
v -45.109379 27.693058 12.346720
v -38.313141 27.693062 26.820532
v -38.592453 26.502398 26.951687
v -45.388691 26.502394 12.477872
v -49.019745 11.023746 14.182850
v -42.223507 11.023748 28.656666
vn 0.8762 -0.2509 -0.4114
s 0
usemtl DarkGray
f 8//1 13//1 12//1 4//1
f 13//1 14//1 11//1 12//1
f 1//1 11//1 14//1 5//1
f 7//1 16//1 13//1 8//1
f 16//1 15//1 14//1 13//1
f 15//1 6//1 5//1 14//1
f 3//1 10//1 16//1 7//1
f 10//1 9//1 15//1 16//1
f 9//1 2//1 6//1 15//1
