# Blender 4.2.2 LTS
# www.blender.org
mtllib cube3.mtl
o Cube
v -10.166136 10.861353 7.513243
v -10.161573 11.060319 7.493450
v -3.095214 11.372294 14.279410
v -3.090652 11.571259 14.259617
v -10.027733 10.843923 7.369923
v -10.023170 11.042888 7.350129
v -2.956811 11.354863 14.136089
v -2.952249 11.553829 14.116297
vn -0.6920 0.0872 0.7166
vn 0.7215 0.0521 0.6904
vn 0.6920 -0.0872 -0.7166
vn -0.7215 -0.0521 -0.6904
vn -0.0228 -0.9948 0.0990
vn 0.0228 0.9948 -0.0990
vt 0.375000 0.000000
vt 0.625000 0.000000
vt 0.625000 0.250000
vt 0.375000 0.250000
vt 0.625000 0.500000
vt 0.375000 0.500000
vt 0.625000 0.750000
vt 0.375000 0.750000
vt 0.625000 1.000000
vt 0.375000 1.000000
vt 0.125000 0.500000
vt 0.125000 0.750000
vt 0.875000 0.500000
vt 0.875000 0.750000
s 0
f 1/1/1 3/4/1 4/3/1 2/2/1
f 3/4/2 7/6/2 8/5/2 4/3/2
f 7/6/3 5/8/3 6/7/3 8/5/3
f 5/8/4 1/10/4 2/9/4 6/7/4
f 3/11/5 1/12/5 5/8/5 7/6/5
f 8/5/6 6/7/6 2/14/6 4/13/6
