# Blender 4.2.2 LTS
# www.blender.org
mtllib obj_subsurface_bar.mtl
o obj_subsurface_bar
v 1.070458 8.714149 3.736616
v 1.363967 8.459031 3.830248
v -1.589005 5.229248 4.286821
v -1.882513 5.484367 4.193190
v 1.059895 8.737474 3.833282
v 1.353403 8.482354 3.926914
v -1.599569 5.252572 4.383488
v -1.893078 5.507690 4.289856
v 1.117886 8.189882 3.868295
v -1.342924 5.498396 4.248774
v 0.824377 8.445002 3.774664
v -1.636432 5.753516 4.155142
v 1.107321 8.213204 3.964962
v -1.353489 5.521719 4.345440
v 0.813814 8.468326 3.871330
v -1.646996 5.776840 4.251808
vn 0.6711 0.7340 -0.1038
vn -0.6711 -0.7340 0.1038
vn 0.1056 -0.2332 -0.9667
vn -0.1056 0.2332 0.9667
vn 0.7338 -0.6378 0.2341
vn -0.7338 0.6378 -0.2341
s 0
usemtl DarkGray
f 1//1 5//1 6//1 2//1
f 3//2 7//2 8//2 4//2
f 11//3 1//3 2//3 9//3
f 9//3 10//3 12//3 11//3
f 10//3 3//3 4//3 12//3
f 5//4 15//4 13//4 6//4
f 15//4 16//4 14//4 13//4
f 16//4 8//4 7//4 14//4
f 6//5 13//5 9//5 2//5
f 13//5 14//5 10//5 9//5
f 14//5 7//5 3//5 10//5
f 1//6 11//6 15//6 5//6
f 11//6 12//6 16//6 15//6
f 12//6 4//6 8//6 16//6
